<svg width="68" height="68" viewBox="0 0 68 68" fill="none" xmlns="http://www.w3.org/2000/svg">
<path fill-rule="evenodd" clip-rule="evenodd" d="M42.5 59.5C42.5 61.7543 41.6044 63.9163 40.0104 65.5104C38.4163 67.1045 36.2543 68 34 68C31.7456 68 29.5836 67.1045 27.9896 65.5104C26.3955 63.9163 25.5 61.7543 25.5 59.5C25.5 57.2457 26.3955 55.0837 27.9896 53.4896C29.5836 51.8955 31.7456 51 34 51C36.2543 51 38.4163 51.8955 40.0104 53.4896C41.6044 55.0837 42.5 57.2457 42.5 59.5ZM50.065 21.9257C49.4673 21.3288 48.6572 20.9936 47.8125 20.9936C46.9678 20.9936 46.1576 21.3288 45.56 21.9257L37.1875 30.2983V3.1875C37.1875 2.34212 36.8516 1.53137 36.2539 0.933597C35.6561 0.335825 34.8453 0 34 0C33.1546 0 32.3438 0.335825 31.7461 0.933597C31.1483 1.53137 30.8125 2.34212 30.8125 3.1875V30.2983L22.44 21.9257C21.8357 21.3627 21.0365 21.0562 20.2107 21.0708C19.385 21.0853 18.5971 21.4199 18.0131 22.0039C17.4291 22.5879 17.0945 23.3757 17.08 24.2015C17.0654 25.0273 17.3719 25.8265 17.935 26.4307L31.7475 40.2432L34 42.5L36.2525 40.2475L50.065 26.435C50.3612 26.139 50.5961 25.7875 50.7565 25.4007C50.9168 25.0138 50.9993 24.5991 50.9993 24.1804C50.9993 23.7616 50.9168 23.347 50.7565 22.9601C50.5961 22.5732 50.3612 22.2218 50.065 21.9257Z" fill="black"/>
</svg>
